<?xml version="1.0" standalone="no"?>
<!DOCTYPE svg PUBLIC "-//W3C//DTD SVG 20010904//EN"
 "http://www.w3.org/TR/2001/REC-SVG-20010904/DTD/svg10.dtd">
<svg version="1.0" xmlns="http://www.w3.org/2000/svg"
 width="700.000000pt" height="700.000000pt" viewBox="0 0 700.000000 700.000000"
 preserveAspectRatio="xMidYMid meet">
<metadata>
Created by potrace 1.14, written by Peter Selinger 2001-2017
</metadata>
<g transform="translate(0.000000,700.000000) scale(0.100000,-0.100000)"
fill="#000000" stroke="none">
<path d="M3278 6996 c-1 -2 -42 -6 -89 -10 -47 -4 -95 -8 -105 -10 -10 -2 -45
-7 -78 -11 -67 -8 -105 -14 -126 -20 -8 -3 -32 -7 -54 -11 -55 -8 -62 -10
-156 -34 -47 -12 -95 -24 -107 -26 -13 -2 -78 -23 -145 -45 -604 -201 -1110
-532 -1533 -1004 -223 -248 -439 -579 -567 -868 -27 -62 -53 -121 -58 -132
-46 -95 -150 -427 -176 -560 -2 -11 -10 -54 -19 -95 -29 -147 -35 -192 -52
-370 -15 -162 -8 -591 12 -711 2 -13 6 -46 9 -74 21 -182 109 -547 165 -680 5
-11 25 -65 46 -120 63 -166 251 -535 312 -610 4 -6 29 -42 54 -80 155 -236
406 -510 659 -722 81 -67 304 -233 314 -233 3 0 32 -18 65 -40 33 -22 63 -40
67 -40 4 0 15 -6 23 -14 31 -27 311 -164 447 -219 219 -89 425 -150 644 -192
96 -18 123 -23 179 -31 25 -3 57 -8 71 -10 163 -25 682 -25 842 1 13 2 46 7
73 10 74 11 87 13 120 19 17 4 46 9 65 12 51 8 213 48 300 74 253 74 522 187
734 309 49 28 91 51 93 51 10 0 268 180 353 247 153 119 321 277 450 422 36
41 70 79 76 85 29 30 185 242 240 326 120 184 241 412 315 597 66 163 147 422
175 558 16 75 54 300 60 350 4 33 9 76 11 95 8 70 10 517 3 595 -13 131 -21
202 -25 227 -3 13 -8 43 -11 68 -3 25 -7 53 -10 62 -5 18 -11 46 -20 93 -13
73 -66 269 -99 370 -106 314 -227 562 -411 840 -479 725 -1223 1252 -2060
1459 -120 29 -180 42 -349 71 -16 2 -59 7 -95 11 -36 3 -78 8 -95 11 -33 5
-531 13 -537 9z m387 -510 c72 -3 141 -8 155 -10 14 -2 52 -7 85 -11 33 -4
104 -15 159 -26 695 -136 1305 -499 1751 -1044 101 -124 202 -267 256 -362
220 -388 323 -680 394 -1123 21 -130 28 -581 12 -725 -102 -899 -581 -1685
-1327 -2180 -377 -250 -756 -393 -1240 -470 -14 -2 -56 -7 -95 -11 -38 -3 -83
-8 -100 -10 -42 -4 -382 -4 -430 0 -123 12 -172 18 -285 37 -69 11 -161 30
-205 41 -44 11 -87 21 -95 23 -8 2 -66 20 -128 40 -535 173 -1050 527 -1390
955 -46 58 -90 112 -97 122 -66 82 -194 294 -271 449 -88 176 -184 440 -219
597 -2 9 -13 58 -24 107 -11 50 -22 115 -26 145 -3 30 -8 62 -10 70 -26 101
-27 754 -1 799 2 4 6 30 10 59 29 243 143 606 269 857 92 184 117 227 215 370
335 492 823 882 1372 1098 166 65 427 140 562 162 182 28 229 34 363 41 66 4
121 7 123 9 1 1 21 0 45 -1 23 -2 101 -5 172 -8z"/>
<path d="M2945 6235 c-370 -83 -666 -204 -960 -393 -72 -47 -194 -135 -242
-175 -388 -324 -645 -673 -838 -1142 -5 -11 -9 -22 -10 -25 -1 -3 -4 -12 -7
-20 -18 -45 -68 -191 -67 -195 0 -3 -6 -29 -15 -58 -36 -126 -62 -276 -85
-477 -9 -75 -7 -487 2 -525 2 -11 8 -51 11 -90 4 -38 11 -86 16 -105 5 -19 11
-53 15 -75 3 -22 10 -58 16 -80 6 -22 13 -48 15 -58 2 -10 5 -26 8 -35 134
-481 368 -890 706 -1235 l76 -78 51 53 c29 29 73 76 98 103 26 28 75 79 109
115 101 107 100 89 9 183 -358 369 -579 856 -628 1387 -3 36 -6 126 -5 200 1
74 2 143 1 152 0 10 4 20 8 23 6 3 1279 8 1574 5 l37 0 0 -1168 0 -1168 255 0
255 0 -2 2360 c-3 2281 -4 2362 -22 2396 -26 49 -74 98 -120 122 -59 30 -135
31 -261 3z m-108 -2031 c-7 -8 -1507 -8 -1507 -1 0 21 78 213 122 301 60 120
89 171 145 254 24 35 43 67 43 72 0 5 6 13 13 17 6 4 32 35 57 68 64 86 290
311 390 387 79 61 202 144 260 176 128 71 276 137 435 194 l40 14 3 -740 c1
-406 1 -741 -1 -742z"/>
<path d="M3816 6230 c-58 -23 -109 -69 -139 -125 l-22 -40 -3 -2356 -2 -2356
252 1 253 1 2 1325 c2 729 3 1521 3 1760 l0 435 75 -153 c41 -85 75 -155 75
-156 0 -3 190 -398 247 -514 55 -110 133 -163 240 -163 106 0 195 65 244 178
12 26 33 73 46 103 14 30 52 116 85 190 33 74 75 167 93 205 18 39 47 104 65
145 18 41 36 79 40 83 14 16 151 -219 223 -383 48 -112 104 -283 131 -403 27
-119 30 -139 41 -242 4 -33 8 -71 11 -85 6 -40 6 -278 -1 -360 -36 -443 -203
-873 -472 -1218 -42 -53 -81 -102 -87 -108 -6 -6 -46 -47 -88 -91 l-76 -78 66
-70 c37 -39 115 -122 174 -185 l107 -115 67 65 c167 164 360 422 483 645 147
267 273 640 306 902 2 13 6 40 9 60 17 112 21 176 21 363 0 180 -7 320 -20
385 -3 11 -7 38 -10 60 -73 518 -340 1066 -720 1473 -91 98 -139 122 -237 119
-64 -2 -82 -7 -118 -31 -67 -44 -84 -70 -159 -236 -38 -85 -104 -231 -146
-325 -42 -93 -80 -173 -84 -178 -4 -4 -29 39 -56 95 -61 128 -183 383 -262
548 -122 252 -187 388 -250 520 -101 211 -106 220 -138 252 -71 70 -181 94
-269 58z"/>
</g>
</svg>
